{"title":"Napalm Death - Apex Predator/Easy Meat (2015) MP3 &amp; FLAC","uid":11756427,"size":568176998,"categoryP":"audio","categoryS":"flac","magnet":"?xt=urn:btih:9f80c2d6a9bf2c7ab6adcf52005f16b281e8afbf&amp;dn=Napalm+Death+-+Apex+Predator%2FEasy+Meat+%282015%29+MP3+%26amp%3B+FLAC&amp;tr=udp%3A%2F%2Ftracker.openbittorrent.com%3A80&amp;tr=udp%3A%2F%2Fopen.demonii.com%3A1337&amp;tr=udp%3A%2F%2Ftracker.coppersurfer.tk%3A6969&amp;tr=udp%3A%2F%2Fexodus.desync.com%3A6969","seeders":1,"leechers":0,"uploader":"AlienMethod","files":48,"time":1426395075,"description":"FLAC Audio &amp; mp3@320kbps(cbr)\n\n\n\nAudio\nFormat : FLAC\nFormat/Info : Free Lossless Audio Codec\nDuration : 3mn 46s\nBit rate mode : Variable\nBit rate : 895 Kbps\nChannel(s) : 2 channels\nSampling rate : 44.1 KHz\nBit depth : 16 bits\nStream size : 24.1 MiB (100%)\nWriting library : libFLAC 1.2.1 (UTC 2007-09-17)\n\nAudio\nFormat : MPEG Audio\nFormat version : Version 1\nFormat profile : Layer 3\nMode : Joint stereo\nMode extension : MS Stereo\nDuration : 3mn 46s\nBit rate mode : Constant\nBit rate : 320 Kbps\nChannel(s) : 2 channels\nSampling rate : 44.1 KHz\nCompression mode : Lossy\nStream size : 8.63 MiB (100%)\nWriting library : LAME3.98 \nEncoding settings : -m j -V 4 -q 3 -lowpass 20.5\n\n\nm/ AM m/","torrent":{"xt":"urn:btih:9f80c2d6a9bf2c7ab6adcf52005f16b281e8afbf","amp;dn":"Napalm+Death+-+Apex+Predator%2FEasy+Meat+%282015%29+MP3+%26amp%3B+FLAC","amp;tr":["udp%3A%2F%2Ftracker.openbittorrent.com%3A80","udp%3A%2F%2Fopen.demonii.com%3A1337","udp%3A%2F%2Ftracker.coppersurfer.tk%3A6969","udp%3A%2F%2Fexodus.desync.com%3A6969"],"infoHash":"9f80c2d6a9bf2c7ab6adcf52005f16b281e8afbf","infoHashBuffer":{"type":"Buffer","data":[159,128,194,214,169,191,44,122,182,173,207,82,0,95,22,178,129,232,175,191]},"announce":[],"urlList":[]}}